<svg xmlns="http://www.w3.org/2000/svg" viewBox="0 0 234.83 237.68"><title>atola-logo</title><g id="Layer_2" data-name="Layer 2"><g id="ato_Image" data-name="ato Image"><path d="M20.57,122.14c-.81-48.31,36.59-90.64,85.21-96.41,32.91-3.91,60.86,6.3,84,29.81a60.16,60.16,0,0,1,7.08,9c.8,1.2.55,3.09.78,4.66-1.58-.58-3.56-.75-4.69-1.81-6.74-6.35-12.72-13.65-20-19.28C142.69,24.66,97.44,24,66.16,46.21,37,67,23.43,95.57,26.22,131.08c2.12,27,14.83,49,36.22,65.74.26.2.7.31.8.57.59,1.45,1.1,2.94,1.64,4.42-1.45-.13-3.46.31-4.26-.48-7.88-7.78-16.53-15.05-23.09-23.86C25.63,161.49,20.93,143.76,20.57,122.14Z"/><path d="M121.15,144a1.75,1.75,0,0,1,.5,0c12,3.76,20.72-1.81,29.23-9.59,4.24-3.88,10-6.32,15.38-8.61,1.93-.82,5.69-.08,7.1,1.39s2.05,5.39,1.08,7.14c-3.25,5.83-6.54,12.1-11.37,16.5-8.37,7.63-12.21,15.93-9.48,27.16,1,4.27-1.67,7.34-5.16,9.33-3.67,2.09-6.21-.41-8.69-2.78-2.72-2.6-4.66-5.48-9.88-4.3s-12.64-9.88-11.45-15.11a6.11,6.11,0,0,0-.88-3.92,26.77,26.77,0,0,0-3.2-3.79c-2.06-2.42-5-5.23-2.71-8.25,2.1-2.73,5.77-4.26,8.75-6.32Zm24.62,38.05,2.2-.26c.07-3.94.55-7.93.13-11.81-.71-6.59.69-11.93,6-16.38A72.3,72.3,0,0,0,165,142.23c2.58-3.34,4.26-7.38,6.33-11.11l-1.73-1.89c-3.86,1.82-8,3.19-11.5,5.56a145.21,145.21,0,0,0-13.44,10.94,16.24,16.24,0,0,1-13.82,4,73.41,73.41,0,0,0-10.4-.75,4.63,4.63,0,0,0-3.22,1.74c-.33.44.49,2.09,1.15,2.89,1.79,2.16,3.78,4.15,5.74,6.26,2.88-1.77,5.65-3.25,8.16-5.09,3.54-2.6,7.19-2.43,9.93.45,3,3.11,3.26,7.17.65,11-1.22,1.78-2.88,3.34-3.72,5.27-.55,1.27-.56,3.49.22,4.48C141.17,178.28,143.6,180.09,145.77,182.1Zm-15.53-7.19c2.89-3.78,6.08-7.69,8.87-11.85.56-.83,0-2.94-.77-3.94-.44-.58-2.4-.5-3.41-.08a35.12,35.12,0,0,0-4.56,2.93c-9.16,5.76-10.57,3.91-1.2,12.7C129.26,174.76,129.47,174.74,130.24,174.91Z"/><path d="M217,122.46c.1,37.77-23.51,73.87-58.35,89.17C137.29,221,115.47,222.8,93,216.9c-1.37-.36-2.36-2.18-3.52-3.32,1.54-.5,3.15-1.56,4.62-1.39,6.74.81,13.4,2.6,20.15,2.89,29.86,1.32,55-9.25,74.38-32,20.28-23.81,26.61-51.47,20.11-82.1-.33-1.58.6-3.42.95-5.14,1.37,1.31,3.67,2.44,4,4C215,107.32,215.93,114.9,217,122.46Z"/><path d="M42.19,217c10.28-.77,21.68-5.51,32.25-11.87,11.78-7.09,23-15.12,34.45-22.74.69-.46,1.28-1.32,2-1.43a28.83,28.83,0,0,1,4.46,0c-.48,1.39-.53,3.34-1.5,4.09-6.55,5-13.12,10.06-20,14.61C79.69,209,65.12,217.79,48.26,221.35a46.57,46.57,0,0,1-15.71.45c-8.74-1.21-14.95-9.8-14.09-19.53.56-6.4,2.31-12.72,3.92-19,.32-1.25,2.39-2.06,3.65-3.07.4,1.55,1.35,3.2,1.11,4.65-.9,5.54-2.87,11-3.17,16.53C23.33,212.92,28.2,217.38,42.19,217Z"/><path d="M194.46,22.82c16.22-.07,23.82,7.5,23.42,20.56a63.52,63.52,0,0,1-8.73,29.89c-8.53,14.73-18,28.93-27.3,43.21-.92,1.41-4.13,3.06-4.91,2.54-2.92-2-.44-3.8.93-5.62,11-14.57,21.45-29.55,28.46-46.53a103,103,0,0,0,6.18-20.44c2.25-12.23-4.43-19.4-16.74-18.33-5.07.44-10,2.31-15.06,3.1-1.73.27-3.66-.78-5.5-1.22,1.19-1.09,2.21-2.77,3.6-3.17C185,25,191.31,23.6,194.46,22.82Z"/><path d="M77.19,15.3c-.66,8.11-8.68,10.6-15.63,13.8-5.39,2.48-10.11.78-14.16-4.06C42.11,18.74,42.55,12.36,49,7.27a45.73,45.73,0,0,1,9.84-5.82C68.83-2.89,77.13,2.76,77.19,15.3ZM71.92,15c0-5.13-4.09-10.48-8.08-10.61-5.41-.18-14.68,6.7-14.69,10.9s5.45,10.5,9.27,10.46C63.67,25.69,71.93,19.11,71.92,15Z"/><path d="M32.45,55.28c-1.29,4.73-3.74,5.11-7.12,4.57C19,58.84,12.65,58.22,5,57.27,6.22,60.16,6.62,61.73,7.49,63c3.06,4.35,6.07,8.76,9.52,12.8,2.38,2.79,2,4.87-.88,7.9C10.91,76.93,5.58,70.59.89,63.81c-2.83-4.09,1.58-12.43,6.44-12C15.69,52.42,24,54,32.45,55.28Z"/><path d="M212.37,219.92c-3.16-7.91-6.33-15.53-9.25-23.25a7.41,7.41,0,0,1,6.65-9.95c8.28-.11,16.56,0,25.06,0-.53,4.63-2.27,7.07-7,6.63-5.28-.49-10.59-.73-15.89-.93a5.78,5.78,0,0,0-3.5.9c-.37.28.21,2.08.63,3.08,2,4.73,3.92,9.51,6.22,14.09C217.41,214.68,216.48,217.64,212.37,219.92Z"/><path d="M33.1,17.83c3.46,6.66-3.94,6.84-4.28,12.1L44.25,43,39.91,47.7l-16.1-15-6.38,7.06c-2.92-.94-3.45-2.32-1.24-4.57C21.54,29.75,26.84,24.26,33.1,17.83Z"/><path d="M171.41,217.42l4.09-2.27a33,33,0,0,1,1.95,2.89c1.95,3.66,3.93,7.3,5.7,11,1.84,3.9,4.65,4.6,8.08,2.51,3.68-2.23,7.06-5,10.75-7.16,1-.6,2.68-.09,4-.09l.41,2.07c-5.29,3.32-10.36,7.1-15.94,9.83-6.26,3.07-10.28,1.15-13.12-5.18C175.4,226.69,173.53,222.28,171.41,217.42Z"/></g></g></svg>